<?xml version="1.0" standalone="no"?>
<!DOCTYPE svg PUBLIC "-//W3C//DTD SVG 20010904//EN"
 "http://www.w3.org/TR/2001/REC-SVG-20010904/DTD/svg10.dtd">
<svg version="1.0" xmlns="http://www.w3.org/2000/svg"
 width="16.000000pt" height="16.000000pt" viewBox="0 0 16.000000 16.000000"
 preserveAspectRatio="xMidYMid meet">
<metadata>
Created by potrace 1.11, written by Peter Selinger 2001-2013
</metadata>
<g transform="translate(0.000000,16.000000) scale(0.004706,-0.004706)"
fill="#000000" stroke="none">
<path d="M771 2443 c-140 -384 -271 -732 -291 -773 -20 -41 -49 -120 -64 -175
-15 -55 -38 -129 -51 -165 -73 -200 -193 -531 -232 -640 -24 -69 -50 -141 -58
-160 -7 -19 -23 -62 -35 -95 -12 -33 -26 -70 -31 -83 -5 -13 -9 -27 -9 -32 0
-6 192 -10 505 -10 l505 0 97 -27 c87 -23 116 -26 258 -27 143 0 171 3 260 27
l100 27 837 0 c461 0 838 4 838 8 0 5 -53 72 -117 148 -65 77 -134 160 -153
184 -19 24 -46 55 -60 71 -14 15 -32 35 -40 45 -42 52 -315 380 -320 384 -3 3
-41 48 -85 100 -105 126 -235 280 -257 305 -60 69 -144 176 -184 235 -25 37
-82 106 -127 151 -70 71 -336 379 -417 484 -22 28 -110 131 -135 159 -6 6 -42
49 -80 96 -38 47 -77 94 -87 105 -9 11 -28 34 -43 50 -14 17 -76 92 -138 167
-61 75 -117 137 -122 137 -6 1 -125 -313 -264 -696z m639 -2141 c0 -6 -28 -32
-35 -32 -4 0 -5 6 -2 13 3 8 -1 14 -9 14 -7 0 -11 -4 -8 -8 2 -4 -1 -11 -7
-15 -7 -4 -9 -3 -6 3 4 6 0 13 -8 16 -10 4 -12 1 -9 -11 5 -15 4 -15 -5 -2
-10 13 -12 13 -21 0 -5 -8 -10 -10 -10 -4 0 6 -15 10 -35 9 -19 -2 -37 1 -40
5 -3 5 -14 6 -25 3 -11 -3 -20 -1 -20 4 0 5 54 9 120 9 66 0 120 -2 120 -4z
m164 -2 c3 -3 -3 -6 -12 -6 -9 -1 -41 -4 -70 -7 -39 -5 -51 -3 -47 6 4 7 1 5
-7 -3 -20 -23 -41 -25 -27 -2 9 14 25 17 84 17 40 0 76 -2 79 -5z"/>
</g>
</svg>
