<?xml version="1.0" encoding="utf-8"?>
<svg width="343" height="343" version="1.2" xmlns:xlink="http://www.w3.org/1999/xlink" baseProfile="tiny-ps" xmlns="http://www.w3.org/2000/svg">
  <title>OTIS</title>
  <defs>
    <radialGradient id="path125302_1_" cx="6611.8" cy="-7278.3" r="17925" gradientUnits="userSpaceOnUse">
      <stop offset="0" />
      <stop stop-color="#30c0f0" offset="1" />
    </radialGradient>
    <radialGradient id="radialGradient6324" cx="6513.3" cy="-7210.5" r="17987" gradientUnits="userSpaceOnUse">
      <stop stop-opacity="0" offset="0" />
      <stop stop-opacity=".498" offset="1" />
    </radialGradient>
  </defs>
  <g>
    <g transform="matrix(1.039 -.6 .6 1.039 -40.978 134.29)" stroke="#284fd0">
      <circle cx="150" cy="103" r="90" fill="none" stroke-width="18" />
    </g>
    <g>
      <g transform="matrix(.237 0 0 .237 -36.834 -62.205)">
        <path d="m1250 900c0 193.3-156.7 350-350 350-193.3 0-350-156.7-350-350s156.7-350 350-350c193.3 0 350 156.7 350 350z" fill="url(#path125302_1_)" />
      </g>
      <g id="contients" transform="matrix(.94 0 0 .94 -31.5 -62)">
        <path d="m205 147 4-1v-1l4-1h10l-1 1 3-1h4l2 2h5l3 2h-5l2 3 2-1 2 1h-1l9 2v1h2l-2 1h5v-1h2l2 2h-1l-2-1h-6l1 1h7l-2 1v2l2-1v4l2 1-2 2 4 1-2 1 3 2-1 2 1-1-1 2-2-1-1-4-4 2h-2v3h-1l1 3-1 2 2 2v2l2 1-1 1 1 1h-1l1 1h-1l2 3 3 2v-4l1 2 1-1 2 3h2l-1-4h-1v-2h-1l-2-1-2-3v-2l-2-3h1l2 4 4 2 2-4-1 4 3 3h-2l3 3-1 1h1l-2 4-4 1-1-3h-2l2 4 2 1h-2l1 1-2 1v2h1l-1 1h1l-2 1 1 1-2 2 1 1-3 2 5 1 1 5-7 3 2 1v6l1-1 1 3 2-1 2 1 3-3 1-4h-1l1-8h2l2-4 2 2h5l2 3v-3h-1v-2l1 1v-1h-4l-2-1h-1l-2-1 1-2 1 2v-2l3 2h3l2 2h2l1 2h2l-1-3h-2l-1-2 3-5h-2l-4-8 4 1-1-2h-1v-3l2 2 3-1 2 3-1 2h-2v4l-1 1 1 1-1 1 2 3 4-1-1-1h2v-4l2 3 2 5v2h-1l-2 4-3 1-2 3 2 1-1 2-3 1-1-1-5 1-1-5-9 7-3 4h-3v3l-2 3v6l-1 2h-2v3l-3 8 2 2v6l-1 2 3 1-2 2h1v1l1-1 1 2v-1l5 5 6 1 2-2 4-2 6-5 3-1 1 1 2-2h2v8h2v7l-2 2-2 5 1 2-3 5 4-5 4-4 6-11 2-2v-2l4-8 2-9v-4l2-5v-22l-1-3v8h-1v-2h-2l-1-2h-1l-2-3-2-1-2-3h-2v-1l2 1v-1l4 2 4 4v2l2 2v-6l-1-2v-4l-3-10-4-5 2 5v2l-4-3v-2l2 1v-6l-3-6-5-8-3-4h-1l-2-2 4 3 1 3 3 2 2 4-5-6-2-4h-2l-9-10-7-5-3-1-8-6h-2l-13-6h-2l-7-2h-21v1h-3l-4 2v-1h1v-1l-6 1h2l-2 2h-2l-5 4h2l-1 2h-3v2l4-2h4m-12 159 6 2h-2l-1-1 3 1-2-1 7 1v-1h5v-1l4-1 3-3h6l3-2 1-2v-4h1l5-4-1-3h-2l-4-3h-4l-2-1h-3l-3-2h-1l-3-1-3-6-7-2-2-3h-1l-1-2h-2v-2h-2v-1h1l-3-1h-1l-2-1h-2l-3-3-2 1 1 2h-1l1-4-1-1-3 1-1-1-3 4-2-4h-3v-1h-1l-1-4 1-5-1-2-4-2 1-3 3-3-4-2-2 2-3-3v-6l1-4 2-1 1-3h3l2 3 3 1 1-1 2 2v2l2 2-1 1 1 1h-1v1h1l-1 2 1 2 2-9 1-2 6-1-1-1h2l-1-1h1l1-4 1 2v-3l1 2 2-3 4 1h-1v-2l2-2 1 1 1-1v1l4-1 1 1-3 2 2-1h4l-1-1h-2l-2-5h3l-2-1h-3l4-2 6 2 3-1 2-3-1-1h-1v-1h1l-1-1h-2l-1-2h1l-1-1 1-1-1-1 1-1-1-3-2 3h-2l1-5-1-3-1 1-1-1-2 3-2 1-1 4h-3l-1 4-2 1v-3l2-3-2-1-1-5h-2l2-2-1-1 2-2h2v-1h2v-2l1 2 1-1v1l2-1-1-2h1v2l2-1v1l1-2v2l2-1v-2h1v-2l-4 2 2-3-1-1 2-3-6 5-1-5h-2v-2l2-4-2-4 3-2 2-4h2l-1-4h-5l-3 2 1-2h-2l-7 4h-2l3 2-1 1 1 1-2 2-4 7-5 4-1 2-3 1v2h-1v2l-4 2-6 5-3 5-1 4h-1v4l-2 5 2-2v2l-2 3v12l-2 4 2 7 3 6 2 1 2 5 3 3 2 6 2 4 3 3 1-2 2 1-1 1 1 3v4h-3l-1 4h1v2h-1l2 6 2 4 3 2-1 1 2 2 5 3 2 2 2 7 3 5 6 2m28-111 2-2-1-1h1l-1-1h1v-3h3l3-4 2-1 2-3h-2v1h-2v-2l4 1-1-1 1-1h-4l2-3 2 1v-1h-1v-3h-2l-1-3 1-2-2-1h-3v1l-7 1 1 1-4 1v3l4 3v6l-1-1h-1l2 1v2l-3 3 2-1-2 2 2 1-1 1h1l-1 1h1v1h1l-1 1h1v1h1v1l1-1v2l1-1v1m-15-6v-2l1 2 1-4h-1v-1l2 2 1-5h-1v-1h1l-1-1h1v-2l-2-2h1l-3-3-4 3 2 2v-1l2 1v2h1l-3 4h-1l-1-1-1 1 3 1v2l2 3m12-26h-4l1 1-4 3h1l-3 2h1v1l2-2v1l3-3 1 1 4-2v-1h-1l-1-1m42 36-1-3h-2v-1h-1l-4-5-2 1h1l-1 1 3 1v2l1-1 2 2-1 1 1 1-1 1h2l-1 3 1-2 3-1m-52 12 2-1v-3h-2l1-3-2 1-2 3 1 1h-2v1l2-1 2 2m-14-44h-1l3 2h-1l1 2v-1h2v-2l2-1v-2h-1l-1-1h2l-2-1-4 2-1 2m45 20 2-3h-4l-3 3 2-1-1 1h2l-1 2 4-1m13 14 2-1-2-3-2-1v2h-1l2 2-1 1h1v1l2-1m-47-33v1h1v1h2v1h1l-3-3m-4-5 1 1h-2l2 2 2-2h-2l-1-1m8 2v1h3v-3l-2 1m29 2h1l-2-2h-3l2 1v-1l2 2m8-9-4-3h-1l1 2 5 2v-1h-1m-71 87h1l-7-8-3-1-1 1h3v1l5 5h-1l3 2m4 4 4 2-2-3-3-2-3 1 4 3v-1m37-112h4-5m-16 34h-1 1m-3 13h1l-1-4-3 2h1l-1 1 2-1 1 2m54-24v-1h-3l3 2m-72-5-1 1h1m57 6v1h-1l1 1 1-1-1-1m-33 5v-1 1m-7-3h2l2-2-1-1-5 2 1 1 1-1m-31 13h1l-1 2 2-3v-2l-2 3m7-8v-1 1m-3 2h-1 1m54-25h-3l1 1 1-1v1l1-2m-22 68h-1v1h1m2-51h-3 3m-1 12v-2l2-2h-2l-2 2 1 2m59 15v-1h-1l2 2h-1m-24-42h-1 1m-27 14v-2h1v1m-32 1 2-2-1 2m24 5h1v-1h3l-1-1-3 2m39-7h-1l1 1v-1m-48 29 1-1-1 1m25-12v-1h-1v1h1m71 25m-132 55v-2h-1l1 1h-1l1 1m32 43m-13-136h-1m61-18h-1 1m-1 2m-58 83v-1 1m98-24-1-2 2 2m-75 1h1-1m-26 35h1-1m8-97m110 50m-99 64h-1 1m-18-26m33-65 1 1-1-1m48-11h-1 1m-54 46h1-1m84-8m-109 38v-1m17-89v1-1m-18 18v1-1m12 86h-2 1m75-62m24 12h-1 1m-37-9 1-1v1m1-19h-1 1m-76 64v-1l1 1m56-61m-60-5m-3 67h1-1m79-84 1 1-1-1m-46 13v-1 1m20-22m2-1h1-1m47 70h-1 1m3-6-1-1 1 1m-76-36v1-1m-20-6 2-1-2 1m105 44-1-2-2 3 3-1m-95-61m-7 2h1-1m23 28h-1 1m-8 4h1-1m-4 73v-1 1m14-93m29-12h-1l1 1v-1m-27 14v1m101 76m-56-84-1 1h1m10 22h1-1m-75-30m62 44m-44-32h2l-2-1m25 14h-1 1m70 13 1 1-1-1m5 27m-32-15h1m-124 6m99-14m14-8v1-1m-14-11-1-1 1 1m-13-8-1-1 1 1m46 39v-1 1m-94 100m-11-63h-1 1m3-84h1m56 1v-1h-1l1 1m-65 9h1-1m91 14v-1 1m-84-27h1-1m25-9-1 1h1v-1m49 92v-1h-1l1 1m-5-67v1-1m-41 108m-2-90h-1 1m2-45h1-1m-22 71 2 1h-2m18-49 1 1-1-1m-28-1h-1 1m0-1h1-1m25-25h1m107 66v-1 1m-51 31h-1 1m-59-61m-1 3m-11 16 1 1v-1h-1m-20 28h1-1m121-22m-87-39v-1 1m6-24v-1m81 120m-58-84 1-1h-1m6-16m-70 114m12-27h-1 1m10 18h-1 1m46-116h-1m23 90m-57-51m48 75v-1 1m-25-94m-44 82m61-83-1-1h1m-35 13v-1m-8 10h1m-15 72m74-20h-1 1m-31-101m-26 9h1-1m7 18v-1 1m32-8h-1 1m-49-12m19 22m-3 14m81 82h1-1m-56-88h1-1m-21-8h-1 1m55 23m-59-49m25 39 1-1-1 1m1-3h1-1m-43-31m76 39v-1 1m-92-14m2 69m76-67m-54-1m55 23m-100 10m90 21m36-25m-100 38m11-93m58 41m4-18m-12-13m-90 51m89-46m-30 120m-2-88m2-4m42-16m-69-19m26 36m64 24m-100-40h-1 1m33 18m47-17v1-1m-84 84m34-73m50 5m-44 8m16-8m-29 70m84-58m28-8m-68-44m25 30m-25-22v-1 1m-1 0m-18 36m32-6m-38 117m-50-62m-6 18m91-108h-1 1m-5-1m-75 25m115 27m-119 34m119-33m-22-24m-15 7m5 7m-47-17m52-23m-95 86m0-21m21-62m-6 8m7 54m10 37m-15-15m14-94h-1 1m54 40m-15-16m15 86m16-67m-71 4m-16-27m127 27m-150 1m98-26m24 30m-23-22m32 23m3 1m-55-28m-72 46m30 85m-9-148m104 49m-110-37m20 90-1-1 1 1m-37-35m82-46m-45 86h-1 1m15 16m-31-39m129-28m-159 0m139-12m-86-60m48 53m-60 22m20-39m-36 63m80-59m-44 99m60-65m-13-60v1-1m-75 1m72 42m-1 40m48-30m3-14m-123-40m-13 21m18-27m-3 74m63 35m-44-71m6 94m102-40m-143-62m51 106m-25-22m-29-40m90-41v1-1m-79-13m31-6m76 50m-64 91m21-145m-29 51m-11-29m-23-12m113 34m-1-1v1-1m-71 102m1-121m71 21m-48-40m-57-13m41-5m66 59m-69-9m-32 110m18-25m-31-46m79-36m9-8m-15 68m-38-75m-23 69m-29-31m17-54m49-21m62 56m-60-64m-71 123m103-60m-9-31m-44-4m75 23m-43 37m9-72m-8 72m-53-78m-10 19m-12 69m13 2m-6-66m95 18m-70 71m14-123m-5 28m-33 5m11 88m-24-39m24-62m23 10m-35 4m10 52m58-65m-52-12m30 137m36-52m56 13m-156-47m73-52m-7 36m-20-8m86 26m-35-24m-76 66m88-34m20-19m-87-45m-30 79m46-58m-22 89m50-92m-82 101m152-54m-142-31m98 10m-15-18m-44 9m43 78m-82 15m-5-32m29-95m-16 89m24-63m3 5m1-7m-48 91v1-1m21-26m61-77m-69 18m-19 40m59-76m-7 72m24-24m-10 95m-6-70m-22 5m-37-3m45-71m80 58m-68 80m45-85m10 11m0-26m-45-2m-26 75m19-83 1-1-1 1m-14-23m-17 99m116-43m-5 74m-9-61m-61-22m43-4m-81-31h-1 1m49 11m42 35m-66 74m-4-93m1-21m3 114m-14-87m12-16m3-12m-35 5m32-7m-36 79m56-99m36 46m24 11m-22-10m-46-13m-3-7m23 56m-32-60m-10 6m52-19m14 42m26 11m-78-38m-29 75v1-1m43-55m-18-22m-11 28m5-42m40 6m-22 26m-43-14m31 8v1-1" fill="#00ed00" />
      </g>
      <path d="m260.37 151.78c0 45.959-37.257 83.216-83.216 83.216s-83.216-37.257-83.216-83.216 37.257-83.216 83.216-83.216 83.216 37.257 83.216 83.216z" fill="url(#radialGradient6324)" stroke-width=".237" />
    </g>
    <g stroke="#002000" transform="matrix(1.039 -.6 .6 1.039 -40.978 134.29)">
      <path d="m150 103c-30 22.5-60 45-90 45a45 47-90 1 1 0-90c30 0 60 22.5 90 45" fill="none" stroke-width="18" />
      <path d="m150 103 c30 22.5 60 45 90 45 a45 47-90 1 0 0-90 c-30 0 -60 22.5 -90 45" fill="none" stroke-width="18" />
    </g>
  </g>
</svg>
